<svg width="224" height="36" viewBox="0 0 224 36" fill="none" xmlns="http://www.w3.org/2000/svg">
<path d="M27.2196 25.864L28.8041 24.2089V11.6638L27.0027 9.59738H35.1419V24.2187L36.7264 25.8738V26.4026H27.2102L27.2196 25.864ZM28.4551 3.67247C28.4551 1.48857 29.7189 0 31.973 0C34.2271 0 35.4909 1.48857 35.4909 3.67247C35.4909 5.88574 34.2271 7.37431 31.973 7.37431C29.7189 7.37431 28.4551 5.89553 28.4551 3.67247Z" fill="#161C45"/>
<path d="M76.8458 25.7073V26.2362H68.9235V23.6214C67.2447 25.4136 65.283 26.5692 63.4156 26.5692C60.1901 26.5692 57.7756 23.8271 57.7756 18.7346C57.7756 13.2406 60.7842 9.38202 65.1226 9.38202C66.8014 9.38202 67.9426 9.91085 68.9235 10.6062V6.04252L67.1221 4.41684L74.6672 1.4397L75.2613 24.6889L76.8458 25.7073ZM68.9235 23.1611V11.1546C68.4802 10.8216 67.9049 10.6551 67.3673 10.6551C65.7168 10.6551 64.5473 12.7411 64.5473 16.8347C64.5473 21.2612 65.4622 23.4843 67.5842 23.4843C68.0652 23.4941 68.4802 23.357 68.9235 23.1611Z" fill="#161C45"/>
<path d="M56.9168 25.7071V26.2359H48.9945V23.6212C47.3157 25.4133 45.354 26.5689 43.4866 26.5689C40.2611 26.5689 37.8467 23.8268 37.8467 18.7343C37.8467 13.2403 40.8553 9.38177 45.1937 9.38177C46.8725 9.38177 48.0137 9.91061 48.9945 10.6059V6.04228L47.1931 4.4166L55.3324 1.43945V24.6886L56.9168 25.7071ZM48.9945 23.1609V11.1543C48.5512 10.8214 47.9759 10.6549 47.4383 10.6549C45.7879 10.6549 44.6184 12.7409 44.6184 16.8344C44.6184 21.261 45.5332 23.484 47.6553 23.484C48.1457 23.4938 48.5512 23.3567 48.9945 23.1609Z" fill="#161C45"/>
<path d="M24.4366 10.5865V8.05001C24.4272 8.03042 24.4177 8.01084 24.4083 8.00104V1.8313H19.1173V3.29049C17.3065 2.4091 15.2505 1.91943 13.0718 1.91943C5.85686 1.91943 0 7.35469 0 14.0631C0 20.7714 5.85686 26.2067 13.0718 26.2067C15.2505 26.2067 17.3159 25.7072 19.1173 24.8356V26.1577H24.4083V20.1153C24.4177 20.0957 24.4272 20.0859 24.4366 20.0663V19.3024V17.3634H24.4083H19.1173H14.3828V19.3024H19.1173V19.9488C19.1173 22.7007 17.6743 24.9238 13.4679 24.9238C9.69541 24.9238 7.12066 21.6332 7.11123 13.8084V13.7693C7.11123 5.91508 9.34645 2.70289 13.5245 2.70289C16.6086 2.70289 19.1173 5.32748 19.1173 8.55925V10.6158H24.4366V10.5865Z" fill="#161C45"/>
<path d="M96 9.59744L85.2105 28.5278C83.362 31.7987 81.6455 36 76.9675 36V28.2829C79.8441 29.4679 82.7961 29.8205 85.7481 26.0109L76.977 9.58765H85.7858L84.2391 11.4092L89.2849 20.0566L92.4255 14.8662L89.1623 9.58765L96 9.59744Z" fill="#161C45"/>
<path d="M117.119 7.27637H121.646V14.494H128.384V7.27637H132.91V26.1284H128.384V18.2546H121.646V26.1284H117.119V7.27637Z" fill="#161C45"/>
<path d="M138.949 7.27637H151.216V10.9292H143.476V14.5234H150.668V18.235H143.476V22.358H151.499V26.1284H138.949V7.27637Z" fill="#161C45"/>
<path d="M161.524 7.27637H167.024L173.185 26.1382H168.375L167.317 22.5734H160.9L159.842 26.1382H155.372L161.524 7.27637ZM166.287 18.9205L164.113 11.7029L161.94 18.9205H166.287Z" fill="#161C45"/>
<path d="M176.977 7.27637H181.503V22.3286H188.553V26.1284H176.977V7.27637Z" fill="#161C45"/>
<path d="M194.071 10.9596H189.138V7.27734H203.521V10.9596H198.588V26.1391H194.062V10.9596H194.071Z" fill="#161C45"/>
<path d="M208.209 7.27637H212.736V14.494H219.474V7.27637H224V26.1284H219.474V18.2546H212.736V26.1284H208.209V7.27637Z" fill="#161C45"/>
<path d="M104.105 19.1455H100.74V16.8441H104.105V13.3381H106.344V16.8441H109.709V19.1455H106.344V22.6515H104.105V19.1455Z" fill="#161C45"/>
</svg>
